# xmcd CD database file
#
# Track frame offsets:
#	150
#	15880
#	28222
#	43512
#	55047
#	70490
#	83447
#	98990
#	112582
#	127557
#	139617
#	152237
#	166960
#	181232
#
# Disc length: 2582 seconds
#
# Revision: 0
# Processed by: cddbd v1.5PL3 Copyright (c) Steve Scherf et al.
# Submitted via: CDex 1.51
#
DISCID=9d0a140e
DTITLE=SAM TAYLOR - Excellent SAM TAYLOR
DYEAR=1900
DGENRE=Jazz
TTITLE0=Harlem Nocturne
TTITLE1=Star Dust
TTITLE2=Misty
TTITLE3=Summertime
TTITLE4=Danny Boy
TTITLE5='Round Midnight
TTITLE6=Johnny Guitar
TTITLE7=Autumn Leaves
TTITLE8=Lover Come Back To Me
TTITLE9=La Playa
TTITLE10=Cry Me A River
TTITLE11=When I Feel In Love
TTITLE12=Moonglow
TTITLE13=Red Sails In The Sunset
EXTD=
EXTT0=
EXTT1=
EXTT2=
EXTT3=
EXTT4=
EXTT5=
EXTT6=
EXTT7=
EXTT8=
EXTT9=
EXTT10=
EXTT11=
EXTT12=
EXTT13=
PLAYORDER=
